Vaana (2008) Telugu Movie - teluguppls



General

Format                           : AVI
File size                        : 695 MiB
Duration                         : 2h 18mn
Overall bit rate                 : 699 Kbps


Video

Format                           : MPEG-4 Visual
Format settings, Matrix          : Default (H.263)
Codec ID                         : XVID
Codec ID/Hint                    : XviD
Duration                         : 2h 18mn
Bit rate                         : 627 Kbps
Width                            : 608 pixels
Height                           : 256 pixels
Display aspect ratio             : 2.35:1
Frame rate                       : 23.976 fps
Color space                      : YUV
Chroma subsampling               : 4:2:0
Bit depth                        : 8 bits
Scan type                        : Progressive
Compression mode                 : Lossy
Bits/(Pixel*Frame)               : 0.168
Stream size                      : 623 MiB (90%)


Audio

Format                           : MPEG Audio
Codec ID/Hint                    : MP3
Duration                         : 2h 18mn
Bit rate mode                    : Constant
Bit rate                         : 64.0 Kbps
Channel(s)                       : 1 channel
Sampling rate                    : 48.0 KHz
Compression mode                 : Lossy
Stream size                      : 63.6 MiB (9%)
Alignment                        : Aligned on interleaves
Interleave, duration             : 24 ms (0.58 video frame)
Interleave, preload duration     : 192 ms


PLEASEEEE SEEEEEEEDDDDDDDDDDDDDDD...................

POST A COMMENT................